<svg id="svg" version="1.1" xmlns="http://www.w3.org/2000/svg" xmlns:xlink="http://www.w3.org/1999/xlink" width="400" height="400" viewBox="0, 0, 400,400"><g id="svgg"><path id="path0" d="M187.109 0.633 C 149.860 3.830,118.802 14.392,89.844 33.711 C -11.720 101.467,-29.718 242.294,51.501 333.740 L 55.273 337.988 55.493 264.013 C 55.725 185.823,55.667 188.217,57.635 176.319 C 71.341 93.483,153.165 39.615,235.001 59.553 C 320.197 80.310,367.474 171.857,335.269 253.711 C 300.683 341.613,188.904 373.576,114.355 316.880 L 111.719 314.875 111.719 347.269 L 111.719 379.664 114.746 381.085 C 161.430 403.008,214.837 406.297,263.281 390.233 C 332.211 367.377,383.220 309.349,397.024 238.086 C 400.913 218.010,401.245 187.502,397.799 167.000 C 383.758 83.484,317.550 17.136,234.278 3.133 C 221.191 0.933,197.962 -0.299,187.109 0.633 M111.419 196.484 C 111.419 197.236,111.499 197.544,111.597 197.168 C 111.696 196.792,111.696 196.177,111.597 195.801 C 111.499 195.425,111.419 195.732,111.419 196.484 M289.565 200.195 C 289.568 201.270,289.644 201.663,289.733 201.069 C 289.823 200.475,289.821 199.596,289.728 199.116 C 289.635 198.635,289.562 199.121,289.565 200.195 " stroke="none" fill="#2c8cd4" fill-rule="evenodd"></path><path id="path1" d="M190.645 111.777 C 154.650 115.535,123.539 142.374,114.437 177.518 C 99.687 234.466,141.929 289.230,200.586 289.204 C 262.875 289.176,305.315 227.965,283.949 168.968 L 282.684 165.475 281.822 168.578 C 272.715 201.330,229.713 207.520,212.352 178.578 C 198.856 156.080,213.507 124.496,238.765 121.638 C 241.821 121.292,241.659 121.069,236.816 118.946 C 222.444 112.644,206.318 110.140,190.645 111.777 " stroke="none" fill="#1c549c" fill-rule="evenodd"></path><path id="path2" d="M61.889 55.957 L 60.742 57.227 62.012 56.079 C 63.195 55.010,63.461 54.688,63.159 54.688 C 63.092 54.688,62.521 55.259,61.889 55.957 M341.016 57.935 C 341.016 58.002,341.587 58.573,342.285 59.204 L 343.555 60.352 342.407 59.082 C 341.338 57.899,341.016 57.633,341.016 57.935 M55.639 62.207 L 54.492 63.477 55.762 62.329 C 56.945 61.260,57.211 60.938,56.909 60.938 C 56.842 60.938,56.271 61.509,55.639 62.207 " stroke="none" fill="#3a97dc" fill-rule="evenodd"></path><path id="path3" d="M191.300 0.282 C 191.993 0.368,193.224 0.370,194.034 0.285 C 194.845 0.201,194.277 0.130,192.773 0.128 C 191.270 0.126,190.606 0.196,191.300 0.282 M206.934 0.283 C 207.632 0.369,208.774 0.369,209.473 0.283 C 210.171 0.196,209.600 0.125,208.203 0.125 C 206.807 0.125,206.235 0.196,206.934 0.283 M184.863 0.660 C 185.239 0.758,185.854 0.758,186.230 0.660 C 186.606 0.562,186.299 0.481,185.547 0.481 C 184.795 0.481,184.487 0.562,184.863 0.660 M214.751 0.667 C 215.237 0.760,215.940 0.757,216.313 0.659 C 216.687 0.561,216.289 0.485,215.430 0.489 C 214.570 0.493,214.265 0.573,214.751 0.667 M196.777 55.760 C 198.765 55.831,202.017 55.831,204.004 55.760 C 205.991 55.689,204.365 55.631,200.391 55.631 C 196.416 55.631,194.790 55.689,196.777 55.760 M211.426 56.129 C 211.802 56.227,212.417 56.227,212.793 56.129 C 213.169 56.030,212.861 55.950,212.109 55.950 C 211.357 55.950,211.050 56.030,211.426 56.129 M58.580 58.887 L 56.445 61.133 58.691 58.998 C 59.927 57.823,60.938 56.813,60.938 56.752 C 60.938 56.462,60.564 56.800,58.580 58.887 M204.004 111.207 C 204.380 111.305,204.995 111.305,205.371 111.207 C 205.747 111.109,205.439 111.028,204.688 111.028 C 203.936 111.028,203.628 111.109,204.004 111.207 M137.280 137.207 L 136.133 138.477 137.402 137.329 C 138.586 136.260,138.851 135.938,138.550 135.938 C 138.482 135.938,137.911 136.509,137.280 137.207 M0.872 183.203 C 0.872 183.955,0.952 184.263,1.051 183.887 C 1.149 183.511,1.149 182.896,1.051 182.520 C 0.952 182.144,0.872 182.451,0.872 183.203 M344.622 187.891 C 344.622 188.643,344.702 188.950,344.801 188.574 C 344.899 188.198,344.899 187.583,344.801 187.207 C 344.702 186.831,344.622 187.139,344.622 187.891 M0.497 188.672 C 0.497 189.639,0.573 190.034,0.666 189.551 C 0.759 189.067,0.759 188.276,0.666 187.793 C 0.573 187.310,0.497 187.705,0.497 188.672 M55.966 191.797 C 55.966 192.764,56.042 193.159,56.135 192.676 C 56.228 192.192,56.228 191.401,56.135 190.918 C 56.042 190.435,55.966 190.830,55.966 191.797 M345.047 194.531 C 345.047 195.928,345.118 196.499,345.204 195.801 C 345.291 195.103,345.291 193.960,345.204 193.262 C 345.118 192.563,345.047 193.135,345.047 194.531 M0.146 200.195 C 0.147 202.559,0.211 203.475,0.289 202.232 C 0.367 200.989,0.366 199.055,0.287 197.935 C 0.209 196.815,0.145 197.832,0.146 200.195 M345.047 206.250 C 345.047 207.646,345.118 208.218,345.204 207.520 C 345.291 206.821,345.291 205.679,345.204 204.980 C 345.118 204.282,345.047 204.854,345.047 206.250 M0.502 211.914 C 0.505 212.988,0.581 213.381,0.671 212.788 C 0.761 212.194,0.758 211.315,0.666 210.834 C 0.573 210.354,0.499 210.840,0.502 211.914 M302.530 302.832 L 299.414 306.055 302.637 302.939 C 305.630 300.045,306.037 299.609,305.753 299.609 C 305.694 299.609,304.244 301.060,302.530 302.832 M345.483 338.379 L 344.336 339.648 345.605 338.501 C 346.304 337.870,346.875 337.299,346.875 337.232 C 346.875 336.930,346.553 337.196,345.483 338.379 M190.137 344.807 C 190.620 344.900,191.411 344.900,191.895 344.807 C 192.378 344.714,191.982 344.638,191.016 344.638 C 190.049 344.638,189.653 344.714,190.137 344.807 M209.282 344.808 C 209.768 344.901,210.471 344.897,210.844 344.800 C 211.218 344.702,210.820 344.625,209.961 344.630 C 209.102 344.634,208.796 344.714,209.282 344.808 M199.121 345.204 C 199.819 345.291,200.962 345.291,201.660 345.204 C 202.358 345.118,201.787 345.047,200.391 345.047 C 198.994 345.047,198.423 345.118,199.121 345.204 M217.676 399.879 C 218.052 399.977,218.667 399.977,219.043 399.879 C 219.419 399.780,219.111 399.700,218.359 399.700 C 217.607 399.700,217.300 399.780,217.676 399.879 " stroke="none" fill="#b7d8f1" fill-rule="evenodd"></path><path id="path4" d="M197.737 0.289 C 199.178 0.364,201.639 0.365,203.206 0.290 C 204.773 0.216,203.594 0.155,200.586 0.154 C 197.578 0.154,196.296 0.214,197.737 0.289 M64.233 53.613 L 63.086 54.883 64.355 53.736 C 65.539 52.666,65.805 52.344,65.503 52.344 C 65.436 52.344,64.864 52.915,64.233 53.613 M338.672 55.664 C 339.839 56.846,340.882 57.813,340.989 57.813 C 341.096 57.813,340.229 56.846,339.063 55.664 C 337.896 54.482,336.853 53.516,336.745 53.516 C 336.638 53.516,337.505 54.482,338.672 55.664 M345.117 62.109 C 346.175 63.184,347.129 64.063,347.236 64.063 C 347.344 64.063,346.566 63.184,345.508 62.109 C 344.450 61.035,343.496 60.156,343.389 60.156 C 343.281 60.156,344.059 61.035,345.117 62.109 M53.296 64.551 L 52.148 65.820 53.418 64.673 C 54.116 64.042,54.688 63.471,54.688 63.403 C 54.688 63.102,54.365 63.367,53.296 64.551 M97.844 98.145 L 93.945 102.148 97.949 98.250 C 101.668 94.628,102.131 94.141,101.848 94.141 C 101.790 94.141,99.989 95.942,97.844 98.145 M302.734 97.852 C 303.901 99.033,304.944 100.000,305.051 100.000 C 305.159 100.000,304.292 99.033,303.125 97.852 C 301.958 96.670,300.915 95.703,300.808 95.703 C 300.701 95.703,301.567 96.670,302.734 97.852 M198.730 111.224 C 199.644 111.306,201.138 111.306,202.051 111.224 C 202.964 111.141,202.217 111.074,200.391 111.074 C 198.564 111.074,197.817 111.141,198.730 111.224 M271.661 186.035 L 270.117 187.695 271.777 186.151 C 273.321 184.715,273.617 184.375,273.321 184.375 C 273.258 184.375,272.511 185.122,271.661 186.035 M0.481 191.406 C 0.481 192.158,0.562 192.466,0.660 192.090 C 0.758 191.714,0.758 191.099,0.660 190.723 C 0.562 190.347,0.481 190.654,0.481 191.406 M289.552 197.070 C 289.556 197.930,289.636 198.235,289.729 197.749 C 289.823 197.263,289.819 196.560,289.722 196.187 C 289.624 195.813,289.547 196.211,289.552 197.070 M55.565 267.138 C 55.473 334.539,55.435 337.961,54.785 337.472 C 54.137 336.983,54.136 336.995,54.776 337.693 C 55.147 338.099,55.543 338.338,55.656 338.224 C 55.769 338.111,55.817 306.130,55.762 267.154 L 55.662 196.289 55.565 267.138 M243.652 197.158 C 244.351 197.244,245.493 197.244,246.191 197.158 C 246.890 197.071,246.318 197.000,244.922 197.000 C 243.525 197.000,242.954 197.071,243.652 197.158 M289.552 203.320 C 289.556 204.180,289.636 204.485,289.729 203.999 C 289.823 203.513,289.819 202.810,289.722 202.437 C 289.624 202.063,289.547 202.461,289.552 203.320 M0.481 208.984 C 0.481 209.736,0.562 210.044,0.660 209.668 C 0.758 209.292,0.758 208.677,0.660 208.301 C 0.562 207.925,0.481 208.232,0.481 208.984 M263.281 263.477 C 262.332 264.443,261.644 265.234,261.751 265.234 C 261.859 265.234,262.723 264.443,263.672 263.477 C 264.621 262.510,265.309 261.719,265.202 261.719 C 265.094 261.719,264.230 262.510,263.281 263.477 M306.811 298.535 L 305.664 299.805 306.934 298.657 C 307.632 298.026,308.203 297.455,308.203 297.388 C 308.203 297.086,307.881 297.352,306.811 298.535 M111.420 346.950 C 111.369 364.930,111.460 379.723,111.621 379.823 C 111.887 379.987,111.884 356.589,111.615 325.977 C 111.558 319.531,111.470 328.969,111.420 346.950 M341.786 342.090 L 339.258 344.727 341.895 342.199 C 344.344 339.851,344.710 339.453,344.422 339.453 C 344.362 339.453,343.176 340.640,341.786 342.090 M195.416 345.202 C 196.009 345.292,196.888 345.290,197.369 345.197 C 197.849 345.104,197.363 345.031,196.289 345.034 C 195.215 345.037,194.822 345.112,195.416 345.202 M203.619 345.202 C 204.212 345.292,205.091 345.290,205.572 345.197 C 206.052 345.104,205.566 345.031,204.492 345.034 C 203.418 345.037,203.025 345.112,203.619 345.202 " stroke="none" fill="#54a4dc" fill-rule="evenodd"></path></g></svg>